<mxfile host="app.diagrams.net" agent="Mozilla/5.0 (Macintosh; Intel Mac OS X 10_15_7) AppleWebKit/605.1.15 (KHTML, like Gecko) Version/17.6 Safari/605.1.15" version="24.7.17">
  <diagram name="ページ1" id="pV3M6XK92egPe8y21Z4L">
    <mxGraphModel dx="954" dy="622" grid="1" gridSize="10" guides="1" tooltips="1" connect="1" arrows="1" fold="1" page="1" pageScale="1" pageWidth="827" pageHeight="1169" math="0" shadow="0">
      <root>
        <mxCell id="0" />
        <mxCell id="1" parent="0" />
        <mxCell id="d_UI1BqBw1gaEGtruLU--1" value="" style="ellipse;whiteSpace=wrap;html=1;" vertex="1" parent="1">
          <mxGeometry x="400" y="100" width="41" height="120" as="geometry" />
        </mxCell>
        <mxCell id="d_UI1BqBw1gaEGtruLU--2" value="" style="shape=waypoint;sketch=0;fillStyle=solid;size=6;pointerEvents=1;points=[];fillColor=none;resizable=0;rotatable=0;perimeter=centerPerimeter;snapToPoint=1;" vertex="1" parent="1">
          <mxGeometry x="150" y="150" width="20" height="20" as="geometry" />
        </mxCell>
        <mxCell id="d_UI1BqBw1gaEGtruLU--3" value="" style="shape=singleArrow;whiteSpace=wrap;html=1;arrowWidth=0.4;arrowSize=0.5666666666666667;" vertex="1" parent="1">
          <mxGeometry x="170" y="145" width="30" height="30" as="geometry" />
        </mxCell>
        <mxCell id="d_UI1BqBw1gaEGtruLU--4" value="" style="shape=singleArrow;whiteSpace=wrap;html=1;arrowWidth=0.4;arrowSize=0.5666666666666667;rotation=-180;" vertex="1" parent="1">
          <mxGeometry x="120" y="145" width="30" height="30" as="geometry" />
        </mxCell>
        <mxCell id="d_UI1BqBw1gaEGtruLU--5" value="" style="endArrow=none;html=1;rounded=0;entryX=0.5;entryY=0;entryDx=0;entryDy=0;" edge="1" parent="1" source="d_UI1BqBw1gaEGtruLU--2" target="d_UI1BqBw1gaEGtruLU--1">
          <mxGeometry width="50" height="50" relative="1" as="geometry">
            <mxPoint x="390" y="190" as="sourcePoint" />
            <mxPoint x="440" y="140" as="targetPoint" />
          </mxGeometry>
        </mxCell>
        <mxCell id="d_UI1BqBw1gaEGtruLU--6" value="" style="endArrow=none;html=1;rounded=0;entryX=0.5;entryY=1;entryDx=0;entryDy=0;" edge="1" parent="1" target="d_UI1BqBw1gaEGtruLU--1">
          <mxGeometry width="50" height="50" relative="1" as="geometry">
            <mxPoint x="160" y="160" as="sourcePoint" />
            <mxPoint x="431" y="110" as="targetPoint" />
          </mxGeometry>
        </mxCell>
        <mxCell id="d_UI1BqBw1gaEGtruLU--7" value="" style="endArrow=none;html=1;rounded=0;" edge="1" parent="1">
          <mxGeometry width="50" height="50" relative="1" as="geometry">
            <mxPoint x="420" y="100" as="sourcePoint" />
            <mxPoint x="680" y="160" as="targetPoint" />
          </mxGeometry>
        </mxCell>
        <mxCell id="d_UI1BqBw1gaEGtruLU--8" value="" style="endArrow=none;html=1;rounded=0;" edge="1" parent="1">
          <mxGeometry width="50" height="50" relative="1" as="geometry">
            <mxPoint x="420" y="220" as="sourcePoint" />
            <mxPoint x="680" y="160" as="targetPoint" />
          </mxGeometry>
        </mxCell>
        <mxCell id="d_UI1BqBw1gaEGtruLU--9" value="" style="shape=waypoint;sketch=0;fillStyle=solid;size=6;pointerEvents=1;points=[];fillColor=none;resizable=0;rotatable=0;perimeter=centerPerimeter;snapToPoint=1;" vertex="1" parent="1">
          <mxGeometry x="670" y="150" width="20" height="20" as="geometry" />
        </mxCell>
        <mxCell id="d_UI1BqBw1gaEGtruLU--10" value="" style="ellipse;whiteSpace=wrap;html=1;" vertex="1" parent="1">
          <mxGeometry x="400" y="280" width="41" height="120" as="geometry" />
        </mxCell>
        <mxCell id="d_UI1BqBw1gaEGtruLU--14" value="" style="endArrow=none;html=1;rounded=0;entryX=0.5;entryY=0;entryDx=0;entryDy=0;" edge="1" parent="1" target="d_UI1BqBw1gaEGtruLU--10">
          <mxGeometry width="50" height="50" relative="1" as="geometry">
            <mxPoint x="200" y="340" as="sourcePoint" />
            <mxPoint x="440" y="320" as="targetPoint" />
          </mxGeometry>
        </mxCell>
        <mxCell id="d_UI1BqBw1gaEGtruLU--15" value="" style="endArrow=none;html=1;rounded=0;entryX=0.5;entryY=1;entryDx=0;entryDy=0;" edge="1" parent="1" target="d_UI1BqBw1gaEGtruLU--10" source="d_UI1BqBw1gaEGtruLU--11">
          <mxGeometry width="50" height="50" relative="1" as="geometry">
            <mxPoint x="200" y="340" as="sourcePoint" />
            <mxPoint x="431" y="290" as="targetPoint" />
          </mxGeometry>
        </mxCell>
        <mxCell id="d_UI1BqBw1gaEGtruLU--16" value="" style="endArrow=none;html=1;rounded=0;" edge="1" parent="1" target="d_UI1BqBw1gaEGtruLU--18">
          <mxGeometry width="50" height="50" relative="1" as="geometry">
            <mxPoint x="420" y="280" as="sourcePoint" />
            <mxPoint x="680" y="340" as="targetPoint" />
          </mxGeometry>
        </mxCell>
        <mxCell id="d_UI1BqBw1gaEGtruLU--17" value="" style="endArrow=none;html=1;rounded=0;entryX=0.55;entryY=0.9;entryDx=0;entryDy=0;entryPerimeter=0;" edge="1" parent="1" target="d_UI1BqBw1gaEGtruLU--18">
          <mxGeometry width="50" height="50" relative="1" as="geometry">
            <mxPoint x="420" y="400" as="sourcePoint" />
            <mxPoint x="680" y="340" as="targetPoint" />
          </mxGeometry>
        </mxCell>
        <mxCell id="d_UI1BqBw1gaEGtruLU--18" value="" style="shape=waypoint;sketch=0;fillStyle=solid;size=6;pointerEvents=1;points=[];fillColor=none;resizable=0;rotatable=0;perimeter=centerPerimeter;snapToPoint=1;" vertex="1" parent="1">
          <mxGeometry x="710" y="330" width="20" height="20" as="geometry" />
        </mxCell>
        <mxCell id="d_UI1BqBw1gaEGtruLU--19" value="" style="endArrow=none;html=1;rounded=0;entryDx=0;entryDy=0;" edge="1" parent="1" target="d_UI1BqBw1gaEGtruLU--11">
          <mxGeometry width="50" height="50" relative="1" as="geometry">
            <mxPoint x="200" y="340" as="sourcePoint" />
            <mxPoint x="421" y="400" as="targetPoint" />
          </mxGeometry>
        </mxCell>
        <mxCell id="d_UI1BqBw1gaEGtruLU--11" value="" style="shape=waypoint;sketch=0;fillStyle=solid;size=6;pointerEvents=1;points=[];fillColor=none;resizable=0;rotatable=0;perimeter=centerPerimeter;snapToPoint=1;" vertex="1" parent="1">
          <mxGeometry x="190" y="330" width="20" height="20" as="geometry" />
        </mxCell>
        <mxCell id="d_UI1BqBw1gaEGtruLU--20" value="" style="ellipse;whiteSpace=wrap;html=1;" vertex="1" parent="1">
          <mxGeometry x="400" y="440" width="41" height="120" as="geometry" />
        </mxCell>
        <mxCell id="d_UI1BqBw1gaEGtruLU--21" value="" style="endArrow=none;html=1;rounded=0;entryX=0.5;entryY=0;entryDx=0;entryDy=0;exitX=0.8;exitY=0.5;exitDx=0;exitDy=0;exitPerimeter=0;" edge="1" parent="1" target="d_UI1BqBw1gaEGtruLU--20" source="d_UI1BqBw1gaEGtruLU--27">
          <mxGeometry width="50" height="50" relative="1" as="geometry">
            <mxPoint x="200" y="500" as="sourcePoint" />
            <mxPoint x="440" y="480" as="targetPoint" />
          </mxGeometry>
        </mxCell>
        <mxCell id="d_UI1BqBw1gaEGtruLU--22" value="" style="endArrow=none;html=1;rounded=0;entryX=0.5;entryY=1;entryDx=0;entryDy=0;" edge="1" parent="1" source="d_UI1BqBw1gaEGtruLU--27" target="d_UI1BqBw1gaEGtruLU--20">
          <mxGeometry width="50" height="50" relative="1" as="geometry">
            <mxPoint x="200" y="500" as="sourcePoint" />
            <mxPoint x="431" y="450" as="targetPoint" />
          </mxGeometry>
        </mxCell>
        <mxCell id="d_UI1BqBw1gaEGtruLU--23" value="" style="endArrow=none;html=1;rounded=0;" edge="1" parent="1">
          <mxGeometry width="50" height="50" relative="1" as="geometry">
            <mxPoint x="420" y="440" as="sourcePoint" />
            <mxPoint x="720" y="520" as="targetPoint" />
          </mxGeometry>
        </mxCell>
        <mxCell id="d_UI1BqBw1gaEGtruLU--24" value="" style="endArrow=none;html=1;rounded=0;" edge="1" parent="1" source="d_UI1BqBw1gaEGtruLU--25">
          <mxGeometry width="50" height="50" relative="1" as="geometry">
            <mxPoint x="420" y="560" as="sourcePoint" />
            <mxPoint x="640" y="500" as="targetPoint" />
          </mxGeometry>
        </mxCell>
        <mxCell id="d_UI1BqBw1gaEGtruLU--27" value="" style="shape=waypoint;sketch=0;fillStyle=solid;size=6;pointerEvents=1;points=[];fillColor=none;resizable=0;rotatable=0;perimeter=centerPerimeter;snapToPoint=1;" vertex="1" parent="1">
          <mxGeometry x="110" y="490" width="20" height="20" as="geometry" />
        </mxCell>
        <mxCell id="d_UI1BqBw1gaEGtruLU--28" value="" style="endArrow=none;html=1;rounded=0;" edge="1" parent="1">
          <mxGeometry width="50" height="50" relative="1" as="geometry">
            <mxPoint x="420" y="560" as="sourcePoint" />
            <mxPoint x="720" y="480" as="targetPoint" />
          </mxGeometry>
        </mxCell>
        <mxCell id="d_UI1BqBw1gaEGtruLU--25" value="" style="shape=waypoint;sketch=0;fillStyle=solid;size=6;pointerEvents=1;points=[];fillColor=none;resizable=0;rotatable=0;perimeter=centerPerimeter;snapToPoint=1;" vertex="1" parent="1">
          <mxGeometry x="630" y="490" width="20" height="20" as="geometry" />
        </mxCell>
        <mxCell id="d_UI1BqBw1gaEGtruLU--29" value="光源" style="text;html=1;align=center;verticalAlign=middle;whiteSpace=wrap;rounded=0;" vertex="1" parent="1">
          <mxGeometry x="130" y="115" width="60" height="30" as="geometry" />
        </mxCell>
        <mxCell id="d_UI1BqBw1gaEGtruLU--30" value="" style="ellipse;whiteSpace=wrap;html=1;" vertex="1" parent="1">
          <mxGeometry x="675" y="330" width="10" height="20" as="geometry" />
        </mxCell>
        <mxCell id="d_UI1BqBw1gaEGtruLU--31" value="" style="ellipse;whiteSpace=wrap;html=1;" vertex="1" parent="1">
          <mxGeometry x="675" y="490" width="10" height="20" as="geometry" />
        </mxCell>
        <mxCell id="d_UI1BqBw1gaEGtruLU--32" value="" style="endArrow=none;dashed=1;html=1;rounded=0;" edge="1" parent="1">
          <mxGeometry width="50" height="50" relative="1" as="geometry">
            <mxPoint x="120" y="570" as="sourcePoint" />
            <mxPoint x="120" y="80" as="targetPoint" />
          </mxGeometry>
        </mxCell>
        <mxCell id="d_UI1BqBw1gaEGtruLU--33" value="" style="endArrow=none;dashed=1;html=1;rounded=0;" edge="1" parent="1">
          <mxGeometry width="50" height="50" relative="1" as="geometry">
            <mxPoint x="199.5" y="570" as="sourcePoint" />
            <mxPoint x="199.5" y="80" as="targetPoint" />
          </mxGeometry>
        </mxCell>
        <mxCell id="d_UI1BqBw1gaEGtruLU--34" value="錯乱円" style="text;html=1;align=center;verticalAlign=middle;whiteSpace=wrap;rounded=0;" vertex="1" parent="1">
          <mxGeometry x="650" y="290" width="60" height="30" as="geometry" />
        </mxCell>
        <mxCell id="d_UI1BqBw1gaEGtruLU--35" value="" style="shape=curlyBracket;whiteSpace=wrap;html=1;rounded=1;flipH=1;labelPosition=right;verticalLabelPosition=middle;align=left;verticalAlign=middle;rotation=90;" vertex="1" parent="1">
          <mxGeometry x="150" y="540" width="20" height="80" as="geometry" />
        </mxCell>
        <mxCell id="d_UI1BqBw1gaEGtruLU--36" value="被写界深度" style="text;html=1;align=center;verticalAlign=middle;whiteSpace=wrap;rounded=0;" vertex="1" parent="1">
          <mxGeometry x="120" y="590" width="80" height="30" as="geometry" />
        </mxCell>
        <mxCell id="d_UI1BqBw1gaEGtruLU--40" value="撮影面" style="text;html=1;align=center;verticalAlign=middle;whiteSpace=wrap;rounded=0;" vertex="1" parent="1">
          <mxGeometry x="650" y="80" width="60" height="30" as="geometry" />
        </mxCell>
        <mxCell id="d_UI1BqBw1gaEGtruLU--41" value="" style="endArrow=none;dashed=1;html=1;dashPattern=1 3;strokeWidth=2;rounded=0;entryX=0.5;entryY=1;entryDx=0;entryDy=0;" edge="1" parent="1">
          <mxGeometry width="50" height="50" relative="1" as="geometry">
            <mxPoint x="679.5" y="575" as="sourcePoint" />
            <mxPoint x="679.5" y="115" as="targetPoint" />
          </mxGeometry>
        </mxCell>
        <mxCell id="d_UI1BqBw1gaEGtruLU--42" value="" style="endArrow=classic;startArrow=classic;html=1;rounded=0;" edge="1" parent="1">
          <mxGeometry width="50" height="50" relative="1" as="geometry">
            <mxPoint x="120" y="570" as="sourcePoint" />
            <mxPoint x="200" y="570" as="targetPoint" />
          </mxGeometry>
        </mxCell>
      </root>
    </mxGraphModel>
  </diagram>
</mxfile>
